<?xml version="1.0" encoding="UTF-8" standalone="no"?>
<!-- Created with Inkscape (http://www.inkscape.org/) -->

<svg
   version="1.1"
   id="svg1"
   width="737.01331"
   height="264.57333"
   viewBox="0 0 737.01331 264.57333"
   xmlns="http://www.w3.org/2000/svg"
   xmlns:svg="http://www.w3.org/2000/svg">
  <defs
     id="defs1" />
  <g
     id="g1">
    <path
       id="path1"
       d="m 2450.04,979.262 h 171.59 c 80.4,0 132.2,40.458 132.2,113.288 0,42.62 -19.96,73.37 -55.04,90.09 32.92,16.72 50.18,46.39 50.18,82.54 0,67.43 -49.64,107.89 -129.5,107.89 h -169.43 z m 167.27,174.248 c 54.5,0 77.7,-22.66 77.7,-59.88 0,-36.68 -26.98,-60.42 -73.38,-60.42 h -113.86 v 120.3 z m 2.16,166.15 c 46.41,0 70.69,-20.5 70.69,-54.48 0,-32.91 -21.59,-57.19 -69.07,-57.19 h -113.32 v 111.67 z M 2838,979.262 h 58.28 v 163.998 c 0,52.33 26.44,72.83 67.99,72.83 16.73,0 28.6,-3.24 36.69,-8.63 l 22.67,56.1 c -11.34,7.01 -29.14,11.33 -49.11,11.33 -37.23,0 -66.91,-18.34 -79.32,-55.03 v 50.71 H 2838 Z m 359.37,-5.934 c 63.14,0 105.23,28.052 133.28,70.132 l -48.02,28.59 c -17.27,-28.05 -44.25,-46.93 -85.26,-46.93 -53.42,0 -90.11,31.29 -98.74,78.22 h 244.97 v 24.27 c 0,86.32 -63.67,148.9 -149.46,148.9 -85.8,0 -151.63,-66.9 -151.63,-152.67 0,-84.7 62.05,-150.512 154.86,-150.512 z m -3.23,251.932 c 48.02,0 82.01,-26.44 90.65,-72.29 h -184 c 11.33,42.08 46.94,72.29 93.35,72.29 z m 227.7,-245.998 h 58.28 v 162.918 c 0,55.03 26.44,83.08 69.61,83.08 44.24,0 64.21,-26.97 64.21,-71.21 V 979.262 h 58.81 v 165.618 c 0,53.41 26.98,80.38 68.53,80.38 45.87,0 65.83,-29.67 65.83,-74.99 V 979.262 h 59.9 v 174.248 c 0,74.98 -37.23,123 -117.09,123 -43.17,0 -76.63,-20.5 -94.97,-51.25 -15.65,31.83 -46.41,51.25 -92.81,51.25 -37.24,0 -64.76,-15.11 -82.56,-39.38 v 33.44 h -57.74 z m 671.26,-5.934 c 63.13,0 105.22,28.052 133.28,70.132 l -48.03,28.59 c -17.26,-28.05 -44.24,-46.93 -85.25,-46.93 -53.42,0 -90.12,31.29 -98.75,78.22 h 244.98 v 24.27 c 0,86.32 -63.67,148.9 -149.47,148.9 -85.8,0 -151.63,-66.9 -151.63,-152.67 0,-84.7 62.06,-150.512 154.87,-150.512 z m -3.24,251.932 c 48.02,0 82.02,-26.44 90.65,-72.29 h -184 c 11.33,42.08 46.94,72.29 93.35,72.29 z m 227.7,-245.998 h 58.28 v 160.758 c 0,52.33 34,85.24 78.24,85.24 48.57,0 74.47,-31.83 74.47,-81.46 V 979.262 h 58.81 v 168.848 c 0,79.84 -45.86,128.4 -119.79,128.4 -40.47,0 -72.84,-18.35 -92.81,-46.4 v 40.46 h -57.2 V 979.262"
       style="fill:#231f20;fill-opacity:1;fill-rule:nonzero;stroke:none"
       transform="matrix(0.13333333,0,0,-0.13333333,0,264.57333)" />
    <path
       id="path2"
       d="m 2600.59,1558.61 c 89.57,0 152.7,58.81 152.7,153.21 v 246 h -59.89 v -249.23 c 0,-53.41 -37.24,-94.95 -92.28,-94.95 -55.03,0 -92.81,41.54 -92.81,94.95 v 249.23 h -59.89 v -246 c 0,-94.4 62.59,-153.21 152.17,-153.21 z m 240.65,5.4 h 58.28 v 160.76 c 0,52.33 33.99,85.23 78.24,85.23 48.56,0 74.46,-31.82 74.46,-81.45 v -164.54 h 58.82 v 168.85 c 0,79.84 -45.87,128.39 -119.79,128.39 -40.47,0 -72.85,-18.34 -92.81,-46.39 v 40.46 h -57.2 z m 362.61,0 h 58.81 v 291.31 h -58.81 z m -11.88,378.7 c 0,-23.73 16.73,-41.54 41.01,-41.54 24.29,0 41.55,17.81 41.55,41.54 0,23.74 -17.26,41.54 -41.55,41.54 -23.74,0 -41.01,-17.8 -41.01,-41.54 z m 247.67,-378.7 h 57.2 l 120.87,291.31 h -60.43 l -86.88,-219.02 -83.64,219.02 h -61.51 z m 364.23,-5.94 c 63.13,0 105.22,28.06 133.28,70.14 l -48.02,28.59 c -17.27,-28.05 -44.25,-46.94 -85.26,-46.94 -53.42,0 -90.11,31.29 -98.75,78.23 h 244.98 v 24.27 c 0,86.32 -63.67,148.89 -149.47,148.89 -85.79,0 -151.63,-66.89 -151.63,-152.66 0,-84.7 62.06,-150.52 154.87,-150.52 z m -3.24,251.93 c 48.03,0 82.02,-26.43 90.65,-72.29 h -184 c 11.33,42.08 46.95,72.29 93.35,72.29 z m 232.56,-245.99 h 58.28 v 164 c 0,52.33 26.44,72.82 67.99,72.82 16.73,0 28.6,-3.23 36.69,-8.63 l 22.66,56.1 c -11.33,7.02 -29.13,11.33 -49.1,11.33 -37.23,0 -66.91,-18.34 -79.32,-55.02 v 50.71 h -57.2 z m 331.31,-5.94 c 80.4,-0.53 118.71,49.64 118.71,92.25 0,60.42 -55.03,77.14 -103.6,87.39 -44.25,9.72 -70.69,15.11 -70.69,38.31 0,20.5 17.27,37.22 52.88,37.22 31.3,0 52.35,-12.95 66.92,-34.53 l 50.18,28.6 c -25.36,34.52 -62.6,54.48 -117.1,54.48 -68.52,0.54 -112.23,-41.54 -112.23,-86.85 0,-59.34 52.34,-75.53 101.44,-85.78 38.31,-8.09 73.93,-14.02 73.93,-39.37 0,-22.12 -19.97,-41 -57.74,-41 -36.15,0 -60.97,15.64 -78.78,43.15 l -52.34,-29.67 c 24.82,-42.08 66.91,-64.2 128.42,-64.2 z m 201.27,5.94 h 58.81 v 291.31 h -58.81 z m -11.88,378.7 c 0,-23.73 16.73,-41.54 41.01,-41.54 24.29,0 41.55,17.81 41.55,41.54 0,23.74 -17.26,41.54 -41.55,41.54 -23.74,0 -41.01,-17.8 -41.01,-41.54 z m 148.39,-139.72 h 57.73 v -144.03 c 0,-71.75 33.46,-100.35 91.2,-100.35 24.28,0 44.78,6.48 61.51,17.81 l -27.52,48.55 c -9.17,-8.09 -18.35,-11.33 -29.68,-11.33 -22.66,0 -38.31,14.03 -38.31,45.85 v 143.5 h 81.48 v 52.33 h -81.48 v 100.34 l -57.2,-37.22 v -63.12 h -57.73 z m 363.14,-244.92 c 48.57,0 91.2,22.66 114.4,57.19 v -51.25 h 56.12 v 180.18 c 0,70.67 -47.49,117.06 -131.13,117.06 -62.59,0 -107.38,-28.05 -135.97,-66.35 l 51.8,-30.21 c 16.73,28.59 45.32,46.93 83.64,46.93 51.8,0 75.54,-26.97 75.54,-65.81 v -4.86 h -86.34 c -81.48,0 -131.12,-36.68 -131.12,-96.56 0,-49.09 35.61,-86.32 103.06,-86.32 z m 12.41,50.72 c -38.85,0 -56.11,15.1 -56.11,40.45 0,28.6 21.58,45.32 75.54,45.32 h 82.56 v -24.28 c -18.89,-38.3 -60.44,-61.49 -101.99,-61.49 z M 5012,1927.07 c 0,-21.58 14.57,-36.69 36.7,-36.69 21.58,0 36.69,15.11 36.69,36.69 0,21.57 -15.11,36.68 -36.69,36.68 -21.59,0 -36.7,-15.11 -36.7,-36.68 z m 111.7,0 c 0,-21.58 15.11,-36.69 36.69,-36.69 21.59,0 37.24,15.11 37.24,36.69 0,21.57 -15.65,36.68 -37.24,36.68 -21.04,0 -36.69,-15.11 -36.69,-36.68 z m 174.83,-124.08 h 57.74 v -144.03 c 0,-71.75 33.45,-100.35 91.19,-100.35 24.28,0 44.79,6.48 61.52,17.81 l -27.52,48.55 c -9.18,-8.09 -18.35,-11.33 -29.68,-11.33 -22.66,0 -38.31,14.03 -38.31,45.85 v 143.5 h 81.48 v 52.33 h -81.48 v 100.34 l -57.2,-37.22 v -63.12 h -57.74 v -52.33"
       style="fill:#231f20;fill-opacity:1;fill-rule:nonzero;stroke:none"
       transform="matrix(0.13333333,0,0,-0.13333333,0,264.57333)" />
    <path
       id="path3"
       d="m 489.578,965.141 c -0.152,-268.512 222.574,-478.813 489.863,-478.813 269.509,0 489.229,210.621 489.229,478.813 V 1958.34 H 1223.98 V 965.141 c 0,-134.09 -109.63,-235.743 -244.539,-235.743 -130.937,0 -245.007,105.614 -245.007,235.743 V 1958.34 H 489.578 V 965.141"
       style="fill:#da193b;fill-opacity:1;fill-rule:nonzero;stroke:none"
       transform="matrix(0.13333333,0,0,-0.13333333,0,264.57333)" />
    <path
       id="path4"
       d="M 1713.48,1958.34 V 965.09 c 0,-401.969 -329.97,-721.871 -734.554,-721.871 -405.059,0 -734.067,319.902 -734.067,721.871 v 993.25 H 0 V 965.09 C 0,429.031 439.262,0 978.926,0 1518.44,0 1958.34,429.031 1958.34,965.09 v 993.25 h -244.86"
       style="fill:#da193b;fill-opacity:1;fill-rule:nonzero;stroke:none"
       transform="matrix(0.13333333,0,0,-0.13333333,0,264.57333)" />
  </g>
</svg>
